<svg id="Layer_1" data-name="Layer 1" xmlns="http://www.w3.org/2000/svg" viewBox="0 0 497.03 501.52"><defs><style>.cls-1{fill:#fff;stroke:#000;stroke-miterlimit:10;}.cls-2{fill:#120606;}</style></defs><title>github</title><circle class="cls-1" cx="250.51" cy="249.72" r="242"/><path class="cls-2" d="M256.6,507.8C118.1,507.3,7.3,393.8,8.5,254.7,9.6,118.1,119.9,4.6,260.2,6.3,397.3,7.9,507.1,121.1,505.5,260,504,396,394.7,507.7,256.6,507.8ZM221.2,377.5c-1.6-.3-2.3-0.4-3.1-0.5-19.1-2.7-37-8.4-53-19.8-17.1-12.2-27.6-28.6-31.9-48.7-4.4-20.5-2.7-41.2.5-61.7,2.2-14.1,7-27.4,18-37.5,1.6-1.5,1.5-2.7.7-4.7-6-16.6-5.3-33.3-.3-50,1-3.3,2.6-4.7,6.1-3.4,4.2,1.5,8.5,2.8,12.4,5.1,10.7,6.3,18.9,15,26.1,24.9,1.8,2.4,3,2.8,5.5,1.1,6.2-4.3,13.5-5.6,20.6-6.9,17.2-3.2,34.5-2.6,51.8-1.8a98,98,0,0,1,29.7,5.9c3,1.1,5.7,5,8.5,3.5s4.5-5.2,6.7-7.8c8.8-10.6,18.9-19.4,32.5-23.7,4.4-1.4,6.4-.7,7.9,4,5,16.3,5.7,32.4-.6,48.4-1,2.5-.8,4.3,1.3,6.2,8.3,7.7,13.1,17.6,15.6,28.5a195.75,195.75,0,0,1,4.2,56.6c-1.2,18.2-7.1,34.8-19.3,48.8-16.4,18.8-37.8,28.1-61.9,32.2q-4.2.75-8.7,1.5a64.31,64.31,0,0,1,10.6,35c0.1,14.3,0,28.7,0,43v28c15.2-1.5,43.6-11.6,63.4-22.4C456.8,411,503.4,307.1,479.9,204.2,452.1,81.8,331,4.5,208.6,31,93,56.1,13,167.5,30.4,289.9c8.1,56.9,34.2,104.5,77.4,142.4a224.21,224.21,0,0,0,98.5,50.3c2.9,0.7,4.2.5,4.1-3-0.2-9.8-.2-19.7,0-29.5,0-3.3-.6-4.3-4.2-3.6a78,78,0,0,1-19.9,1.6c-21.2-1.1-38.4-9.5-50.5-27.5-4.1-6.1-6.4-13.2-10.3-19.3-6.9-10.7-13-22-24.5-28.9-1.5-.9-3.3-2.3-2.4-4.4s3-1.7,4.8-1.9c12.8-1,23.3,3.8,32,13,4.6,4.9,7.5,11,11.5,16.3,13.3,17.7,38.7,25.3,59.5,17.8,3-1.1,3.9-2.6,4.3-5.7C211.9,397,213.9,386.7,221.2,377.5Z" transform="translate(-8.49 -6.28)"/></svg>