<svg id="Calque_1" data-name="Calque 1" xmlns="http://www.w3.org/2000/svg" viewBox="0 0 30.14 36.33"><defs><style>.cls-1{fill:#fff;}</style></defs><title>github2</title><g id="Layer_3" data-name="Layer 3"><g id="Outline_Filled" data-name="Outline Filled"><path id="Cat" class="cls-1" d="M38.59,50.17H28.91s0-2.87,0-4.84c-6.63,1.43-8.48-3.63-8.48-3.63A14.91,14.91,0,0,0,18,38.06c-2.42-1.44,0-1.21,0-1.21a4.48,4.48,0,0,1,3.63,2.42,5.75,5.75,0,0,0,7.27,2.42,5.94,5.94,0,0,1,1.21-3.63c-5.29-.6-9.69-3.63-9.69-9.69s1.22-7.27,2.43-8.48a7.5,7.5,0,0,1,0-6.06s2.38,0,4.8,3.63c1.2-1.2,4.84-1.21,6.06-1.21s4.85,0,6.05,1.21c2.42-3.63,4.81-3.63,4.81-3.63a7.5,7.5,0,0,1,0,6.06c1.21,1.21,2.42,2.42,2.42,8.48s-4.4,9.09-9.69,9.69c0.68,0.59,1.21,2.67,1.21,3.63v8.47h0Z" transform="translate(-16.93 -13.84)"/></g></g></svg>