<svg id="Layer_1" data-name="Layer 1" xmlns="http://www.w3.org/2000/svg" viewBox="0 0 498.01 502.71"><defs><style>.cls-1{fill:#fff;}.cls-2{fill:#e65c4f;stroke:#84450c;stroke-miterlimit:10;}.cls-3{fill:#e65a4d;}.cls-4{fill:#e6e3d6;}.cls-5{fill:#f6f4ec;}.cls-6{fill:#b6b5ac;}.cls-7{fill:#b13a30;}.cls-8{fill:#c1c0b6;}.cls-9{fill:#c5c3b9;}.cls-10{fill:#c3c2b8;}</style></defs><title>gmail</title><ellipse class="cls-1" cx="248.65" cy="249.67" rx="242.86" ry="240"/><path class="cls-2" d="M257.1,505.9C119.2,505.9,7.9,393.4,8.5,253.5,9.1,114.9,120.9,2.8,259.6,4.2c136,1.3,247,112.8,245.9,253.1C504.4,395.1,393.9,505.5,257.1,505.9ZM257,23.9C132.9,23.5,29.3,124.6,28.1,252.5,26.8,382.8,130.9,484.9,254.5,486.2,380.4,487.5,485.2,385.6,485.8,257,486.5,127.4,384.3,23.9,257,23.9Z" transform="translate(-8 -3.69)"/><path class="cls-3" d="M388.1,141c13.4-1.4,26,9.3,26.9,22.9,0.2,3.6,0,7.3,0,11-1.2,0-2.1.8-3.1,1.5L379,200q-55.05,37.8-110,75.6c-3.8,2.6-8.1,4.6-11.1,8.3-1.7.3-2.8-.8-4-1.7q-44.4-30.9-88.9-61.9c-10.1-7-20.1-14-31-21.5V291q0,37.95.2,75.9c0,0.7-.1,1.4-0.1,2.1-16.6,3.2-30.7-4.7-34.4-19.4a27.89,27.89,0,0,1-.7-6.4c0-58.7.1-117.5-.1-176.2-0.1-14.9,13.2-28.1,27.1-26a18.48,18.48,0,0,0,1.4,1.4q63.15,46.8,126.2,93.6c2.5,1.9,4,1.6,6.3-.1q39.3-29.1,78.7-58C355.1,165.7,371.6,153.3,388.1,141Z" transform="translate(-8 -3.69)"/><path class="cls-4" d="M134.1,367c-0.1-25.3-.1-50.6-0.2-75.9V198.9l31,21.5q44.4,30.9,88.9,61.9c1.2,0.8,2.3,1.9,4,1.7,0.2,2.2,2.2,2.8,3.7,3.8,34,23.6,68,47,101.9,70.8,4.3,3,9.3,5.2,12.6,9.6-1,1.3-2.4,1-3.7,1q-118.2,0-236.4-.1c0.7-1,1.4-1.9,2.1-2.9,2.2-.7,4.2-1.6,5-4,4.2-.6,6.7-3.6,9.3-6.5-3.6,1.5-7,3.1-9.5,6.3-2.2.7-4.2,1.6-5,4A29.33,29.33,0,0,0,134.1,367ZM194,327h1c1.3-.7,2.9-1,3-3a2,2,0,0,0,2-1l1-1a2,2,0,0,0,2-1c0.1-.2.3-0.3,0.4-0.5-0.2.1-.3,0.3-0.5,0.4a2,2,0,0,0-2,1l-1,1a2,2,0,0,0-2,1,3.13,3.13,0,0,0-3,2c-0.3.4-.6,0.7-0.9,1.1a1,1,0,0,0-.5.4A1,1,0,0,0,194,327Zm-6,4a2,2,0,0,0,2-1c0.8-.1,1.6-0.2,1.5-1.2a0.45,0.45,0,0,0-.3-0.3c-1.1-.1-1.2.7-1.3,1.5a1.75,1.75,0,0,0-1.9,1c-0.4.3-.7,0.6-1.1,0.9a2,2,0,0,0-2,1l-1,1a2,2,0,0,0-2,1,3.28,3.28,0,0,0-3,2,9.43,9.43,0,0,1-1,1c-0.1.2-.3,0.3-0.4,0.5,0.2-.1.3-0.3,0.5-0.4a2,2,0,0,0,2-1,1.94,1.94,0,0,0,2-2,2,2,0,0,0,2-1l1-1a2,2,0,0,0,2-1A4.74,4.74,0,0,0,188,331Zm-16,11c-0.8.1-1.6,0.2-1.5,1.3a0.45,0.45,0,0,0,.3.3c1,0,1.1-.8,1.2-1.6a2,2,0,0,0,2.1-.9c0.8-.1,1.6-0.2,1.5-1.3a0.45,0.45,0,0,0-.3-0.3c-1.1-.1-1.2.7-1.3,1.5A2,2,0,0,0,172,342Zm-13.1,8.9a3.44,3.44,0,0,0-3,2c-0.7.2-1.6,0.3-1.5,1.3a0.45,0.45,0,0,0,.3.3c1,0.1,1.2-.7,1.4-1.5,1.4,0,2.8-.2,3-2a2.12,2.12,0,0,0,2-1,3.44,3.44,0,0,0,3-2c0.7-.2,1.6-0.2,1.5-1.3a0.45,0.45,0,0,0-.3-0.3c-1.1-.1-1.2.7-1.3,1.5-1.4,0-2.8.1-3,2A2.66,2.66,0,0,0,158.9,350.9Zm9.8-5.7a1.49,1.49,0,0,0-.3-0.8,0.83,0.83,0,0,0-.8.2c-0.3.4-.2,0.9,0.4,0.9A0.94,0.94,0,0,0,168.7,345.2Z" transform="translate(-8 -3.69)"/><path class="cls-5" d="M388.1,141q-24.75,18.45-49.6,36.9c-26.2,19.4-52.5,38.6-78.7,58-2.4,1.8-3.8,2-6.3.1q-63-47-126.2-93.6a18.48,18.48,0,0,1-1.4-1.4q81.9,0,163.9-.1Q338.85,141,388.1,141Z" transform="translate(-8 -3.69)"/><path class="cls-6" d="M376,368c-3.3-4.4-8.3-6.6-12.6-9.6-33.9-23.7-68-47.2-101.9-70.8-1.4-1-3.4-1.6-3.7-3.8,3-3.7,7.3-5.7,11.1-8.3q54.9-38,110-75.6,0,84.45.1,168.9A16.66,16.66,0,0,1,376,368Z" transform="translate(-8 -3.69)"/><path class="cls-7" d="M379.1,369q0-84.45-.1-168.9l32.9-23.6A5.07,5.07,0,0,1,415,175c0.1,18.5.2,36.9,0.2,55.4V338.7c0,2.5,0,5-.1,7.5-0.6,12.4-6.6,19.4-18.6,21.7C390.7,369,384.9,369.7,379.1,369Z" transform="translate(-8 -3.69)"/><path class="cls-8" d="M138.1,366.1c-0.7,1-1.4,1.9-2.1,2.9a13.4,13.4,0,0,0-2,.1c0-.7.1-1.4,0.1-2.1,1.3-.4,2.5-0.7,3.8-1.1Z" transform="translate(-8 -3.69)"/><path class="cls-8" d="M142.9,361.9c2.5-3.1,5.9-4.8,9.5-6.3-2.6,2.9-5.1,5.9-9.3,6.5Z" transform="translate(-8 -3.69)"/><path class="cls-8" d="M143.1,362.1c-0.9,2.4-2.9,3.3-5,4l-0.2-.2c0.8-2.4,2.9-3.3,5-4Z" transform="translate(-8 -3.69)"/><path class="cls-9" d="M198,324c-0.1,1.9-1.8,2.2-3,3v-1a3.13,3.13,0,0,1,3-2h0Z" transform="translate(-8 -3.69)"/><path class="cls-10" d="M178.9,337a3.13,3.13,0,0,1,3-2l0.1,0.1a1.84,1.84,0,0,1-2,2A3.75,3.75,0,0,0,178.9,337Z" transform="translate(-8 -3.69)"/><path class="cls-8" d="M164.1,348.1a3.28,3.28,0,0,1-3,2L161,350c0.2-1.9,1.6-2,3-2Z" transform="translate(-8 -3.69)"/><path class="cls-8" d="M155.9,352.9a3.44,3.44,0,0,1,3-2l0.1,0.2c-0.2,1.9-1.5,2-3,2Z" transform="translate(-8 -3.69)"/><path class="cls-8" d="M173.9,340.9c0.1-.8.3-1.6,1.3-1.5a0.45,0.45,0,0,1,.3.3c0,1.1-.8,1.1-1.5,1.3Z" transform="translate(-8 -3.69)"/><path class="cls-8" d="M172,342.1c-0.1.8-.2,1.6-1.3,1.5a0.45,0.45,0,0,1-.3-0.3c0-1.2.8-1.2,1.6-1.2h0Z" transform="translate(-8 -3.69)"/><path class="cls-8" d="M168.7,345.2a2.51,2.51,0,0,1-.7.4,0.54,0.54,0,0,1-.4-0.9,0.78,0.78,0,0,1,.8-0.2A2.39,2.39,0,0,1,168.7,345.2Z" transform="translate(-8 -3.69)"/><path class="cls-8" d="M163.9,347.9c0.1-.8.3-1.5,1.3-1.5a0.45,0.45,0,0,1,.3.3c0.1,1.1-.8,1.1-1.5,1.3Z" transform="translate(-8 -3.69)"/><path class="cls-8" d="M156.1,353.1c-0.2.8-.3,1.5-1.4,1.5a0.45,0.45,0,0,1-.3-0.3c-0.1-1.1.8-1.1,1.5-1.3C155.9,352.9,156.1,353.1,156.1,353.1Z" transform="translate(-8 -3.69)"/><path class="cls-10" d="M190,330c0.1-.8.2-1.6,1.3-1.5a0.45,0.45,0,0,1,.3.3c0,1.1-.8,1.1-1.6,1.2h0Z" transform="translate(-8 -3.69)"/><path class="cls-9" d="M201,322a2,2,0,0,1,2-1h0a2,2,0,0,1-2,1h0Z" transform="translate(-8 -3.69)"/><path class="cls-9" d="M200,323a2,2,0,0,1-2,1l-0.1-.1a2.32,2.32,0,0,1,2.1-.9h0Z" transform="translate(-8 -3.69)"/><path class="cls-10" d="M185,333a2,2,0,0,1,2-1l0.1,0.1a2.32,2.32,0,0,1-2.1.9h0Z" transform="translate(-8 -3.69)"/><path class="cls-10" d="M182,335a2,2,0,0,1,2-1l0.1,0.1a2.12,2.12,0,0,1-2.1.9h0Z" transform="translate(-8 -3.69)"/><path class="cls-8" d="M178.9,337H180a2.12,2.12,0,0,1-2,1l-0.1-.1A9,9,0,0,0,178.9,337Z" transform="translate(-8 -3.69)"/><path class="cls-8" d="M174,341a2,2,0,0,1-2,1l-0.1-.1a2,2,0,0,1,2-1Z" transform="translate(-8 -3.69)"/><path class="cls-8" d="M158.9,350.9a2,2,0,0,1,2-1L161,350a2,2,0,0,1-2,1Z" transform="translate(-8 -3.69)"/><path class="cls-10" d="M190,330a2,2,0,0,1-2,1h0a1.81,1.81,0,0,1,2-1h0Z" transform="translate(-8 -3.69)"/><path class="cls-9" d="M203,321c0.2-.1.3-0.3,0.5-0.4-0.2.1-.3,0.3-0.5,0.4h0Z" transform="translate(-8 -3.69)"/><path class="cls-9" d="M201,322l-1,1-0.1-.1c0.4-.3.7-0.6,1.1-0.9h0Z" transform="translate(-8 -3.69)"/><path class="cls-10" d="M195,326v1a3.33,3.33,0,0,1-1,0h0A4.74,4.74,0,0,1,195,326Z" transform="translate(-8 -3.69)"/><path class="cls-10" d="M194,327c-0.2.1-.3,0.3-0.5,0.4,0.2-.1.3-0.3,0.5-0.4h0Z" transform="translate(-8 -3.69)"/><path class="cls-10" d="M184,334l1-1,0.1,0.1c-0.4.3-.7,0.6-1.1,0.9h0Z" transform="translate(-8 -3.69)"/><path class="cls-8" d="M178,338c-0.2.1-.3,0.3-0.5,0.4,0.2-.1.3-0.3,0.5-0.4h0Z" transform="translate(-8 -3.69)"/><path class="cls-10" d="M188,331l-1,1-0.1-.1c0.4-.3.7-0.6,1.1-0.9h0Z" transform="translate(-8 -3.69)"/></svg>