<svg id="Layer_1" data-name="Layer 1" xmlns="http://www.w3.org/2000/svg" viewBox="0 0 496.83 501.25"><defs><style>.cls-1{fill:#fff;stroke:#000;stroke-miterlimit:10;}.cls-2{fill:#0478b5;}</style></defs><title>linkedin</title><circle class="cls-1" cx="247.6" cy="251.8" r="239"/><path class="cls-2" d="M6.4,253C8.3,194.3,26.1,143.6,61.6,99.6c41.6-51.7,95.6-82.9,161.5-91.2,76.6-9.6,144.2,12.2,200.7,64.8,50.1,46.6,76.5,104.9,79.2,173.3,2.9,74-22.2,137.6-74.6,189.8-40.2,40.1-89.1,63.7-145.8,69.6-79.3,8.2-147.7-16.2-203.9-72.4C37.1,391.9,13.9,341,7.7,282.4,6.7,272,6.4,261.3,6.4,253ZM254.6,488.2C379,488.7,482.7,387.5,484,259.6,485.3,129.3,381.2,26.9,257.3,25.8,131.6,24.7,27,126.5,26.3,254.7,25.4,384.4,127.6,488.2,254.6,488.2Z" transform="translate(-6.4 -6.2)"/><path class="cls-2" d="M273.7,233.6c1.4,0.3,1.8-.7,2.4-1.5,15.3-22.5,37.2-29.7,63.1-26.5,31,3.8,50.8,23.8,57.6,56.5a106.79,106.79,0,0,1,2.2,21.8c0.1,34.8,0,69.6.1,104.5,0,3.4-.8,4.6-4.4,4.5-15.7-.2-31.3-0.2-47,0-3.9.1-4.7-1.2-4.7-4.8q0.15-48,0-96c0-6.2-.5-12.2-2.6-18.2-3.2-9.1-9.4-14.9-18.3-18.3-24-9.1-47.8,6.3-48.1,31.9-0.4,32.2-.1,64.3-0.1,96.5,0,8.8,0,8.8-9.1,8.8-14,0-28-.1-42,0.1-3.6,0-4.9-.7-4.9-4.6,0.2-57.5.1-115,.1-172.4,0-3,.7-4,3.9-4,16,0.2,32,.1,48,0,3.1,0,4.1.9,3.9,4C273.5,221.7,273.7,227.7,273.7,233.6Z" transform="translate(-6.4 -6.2)"/><path class="cls-2" d="M127.6,303c0-28.2.1-56.3-.1-84.5,0-4.8,1.5-5.8,5.9-5.7,15,0.3,30,.2,45,0,3.6,0,4.9.8,4.9,4.7q-0.15,85.5,0,171c0,3.6-1.2,4.4-4.6,4.4q-23.25-.3-46.5,0c-3.9.1-4.6-1.4-4.6-4.9C127.7,359.7,127.6,331.3,127.6,303Z" transform="translate(-6.4 -6.2)"/><path class="cls-2" d="M125.8,148.6c0.2-16.5,12.1-27.8,29.3-27.7,16.7,0.2,28.3,12.2,28,29-0.3,16.1-12.5,27.7-29.1,27.6S125.7,165.4,125.8,148.6Z" transform="translate(-6.4 -6.2)"/></svg>