<svg id="Layer_1" data-name="Layer 1" xmlns="http://www.w3.org/2000/svg" viewBox="0 0 90 114"><defs><style>.cls-1{fill:#fff;stroke:#fdfeff;stroke-miterlimit:10;stroke-width:4px;}</style></defs><title>resume</title><path class="cls-1" d="M106.4,24.6l-16-16A2,2,0,0,0,89,8H31.5C26,8,21,12,21,17.5v90A10.91,10.91,0,0,0,31.5,118h66c5.5,0,9.5-5,9.5-10.5V26A2,2,0,0,0,106.4,24.6ZM91,14.8l9.2,9.2H96.5A5.2,5.2,0,0,1,91,18.5V14.8Zm12,92.7c0,3.3-2.2,6.5-5.5,6.5h-66a6.91,6.91,0,0,1-6.5-6.5v-90c0-3.3,3.2-5.5,6.5-5.5H87v6.5A9.19,9.19,0,0,0,96.5,28H103v79.5Z" transform="translate(-19 -6)"/></svg>